<svg width="390" height="577" viewBox="0 0 390 577" fill="none" xmlns="http://www.w3.org/2000/svg">
<path d="M390 460.224H0V23.2237C38.0488 30.216 58.5751 29.6968 125.16 18.2094C191.746 6.72201 247.594 24.4591 290 32.2236C325.5 38.7236 371.81 36.5423 390 23.2236V460.224Z" fill="#588EBA"/>
<path d="M390 469.224H0V22.2236C34.5 30.2236 59.4146 37.7109 126 26.2236C192.585 14.7362 247.094 29.959 289.5 37.7236C325 44.2236 371.81 40.5279 390 27.2092V469.224Z" fill="#324065"/>
<path d="M390 577H0V38.3266C38.0488 46.9458 58.5751 46.3058 125.16 32.1457C191.746 17.9857 247.094 35.5352 289.5 45.1063C325 53.1186 371.81 42.4175 390 26V577Z" fill="#7FB6F6"/>
<path d="M313.712 11.0816C311.683 14.4399 313.678 26.2657 314.93 31.7588C315.456 34.2919 320.057 33.0876 322.292 32.1688C322.222 30.5141 323.152 27.0068 327.424 26.2155C331.696 25.4241 333.347 29.4092 333.639 31.5006L352.971 30.3624C352.877 28.7653 353.679 25.4793 357.639 25.1112C361.598 24.7431 362.845 28.066 362.974 29.7734C365.664 29.6151 369.444 27.9305 370.998 27.108C371.776 25.5158 372.449 20.2244 368.916 11.7954C364.5 1.25925 362.76 3.21732 359.734 1.96162C356.708 0.705929 336.777 1.71075 326.399 3.08092C316.021 4.45109 316.248 6.8837 313.712 11.0816Z" fill="#FFCF01" stroke="#324065"/>
<path d="M313.951 33.7563C313.048 28.7487 313.823 27.2973 314.326 27.2396C314.514 30.4336 318.257 29.5385 319.552 30.0526C320.589 30.4639 320.147 32.5198 320.106 33.7312C318.401 34.5738 315.5 34.2836 313.951 33.7563Z" fill="#A2A2A2"/>
<path d="M365.337 29.8028C364.625 29.17 364.892 27.0175 365.114 26.0204C370.964 25.676 371.909 24.4395 371.651 23.8643C372.794 23.797 372.753 25.8799 372.59 26.9298C371.913 28.3192 366.227 30.5939 365.337 29.8028Z" fill="#A2A2A2"/>
<path d="M313.951 33.7563C313.048 28.7487 313.823 27.2973 314.326 27.2396C314.514 30.4336 318.257 29.5385 319.552 30.0526C320.589 30.4639 320.147 32.5198 320.106 33.7312C318.401 34.5738 315.5 34.2836 313.951 33.7563Z" stroke="#324065"/>
<path d="M365.337 29.8028C364.625 29.17 364.892 27.0175 365.114 26.0204C370.964 25.676 371.909 24.4395 371.651 23.8643C372.794 23.797 372.753 25.8799 372.59 26.9298C371.913 28.3192 366.227 30.5939 365.337 29.8028Z" stroke="#324065"/>
<path d="M323.538 33.2762L321.437 33.3999C321.194 29.2813 321.975 25.3554 328.279 24.9842C333.322 24.6873 334.448 29.9629 334.381 32.6378L332.7 32.7367C332.815 30.8744 332.12 27.1872 328.418 27.3378C324.715 27.4883 323.622 31.3594 323.538 33.2762Z" fill="#CAA400"/>
<path d="M353.654 30.4908L351.973 30.5898C351.836 28.2643 352.756 23.5431 357.53 23.2619C362.304 22.9808 363.828 27.5582 363.993 29.8821L361.975 30.0009C361.857 28.9395 360.841 26.7782 357.728 26.6241C354.615 26.47 353.715 29.1377 353.654 30.4908Z" fill="#CAA400"/>
<path d="M323.538 33.2762L321.437 33.3999C321.194 29.2813 321.975 25.3554 328.279 24.9842C333.322 24.6873 334.448 29.9629 334.381 32.6378L332.7 32.7367C332.815 30.8744 332.12 27.1872 328.418 27.3378C324.715 27.4883 323.622 31.3594 323.538 33.2762Z" stroke="#324065"/>
<path d="M353.654 30.4908L351.973 30.5898C351.836 28.2643 352.756 23.5431 357.53 23.2619C362.304 22.9808 363.828 27.5582 363.993 29.8821L361.975 30.0009C361.857 28.9395 360.841 26.7782 357.728 26.6241C354.615 26.47 353.715 29.1377 353.654 30.4908Z" stroke="#324065"/>
<circle cx="327.943" cy="32.1733" r="5.47296" transform="rotate(-3.36968 327.943 32.1733)" fill="#010302"/>
<circle cx="327.538" cy="32.4501" r="3.19957" transform="rotate(-3.36968 327.538 32.4501)" fill="#8A8A88"/>
<circle cx="327.3" cy="32.7174" r="2.44178" transform="rotate(-3.36968 327.3 32.7174)" fill="#575757"/>
<circle cx="357.797" cy="30.6684" r="4.37836" transform="rotate(-3.36968 357.797 30.6684)" fill="#010302"/>
<circle cx="357.471" cy="30.8563" r="2.52598" transform="rotate(-3.36968 357.471 30.8563)" fill="#8A8A88"/>
<circle cx="357.293" cy="30.6983" r="2.02078" transform="rotate(-3.36968 357.293 30.6983)" fill="#575757"/>
<path d="M361.019 8.04321L366.414 6.54477C370.077 13.7515 370.604 16.5882 370.409 17.1057C368.776 17.5392 365.309 18.435 364.506 18.5498C363.703 18.6645 361.847 11.5932 361.019 8.04321Z" fill="white" stroke="#324065"/>
<path d="M351.327 19.0721C350.358 18.6569 350.577 13.0153 350.808 10.2465L356.944 9.88521C358.154 9.81394 358.523 15.6964 358.556 18.6465C356.202 18.7851 352.539 19.5912 351.327 19.0721Z" fill="white" stroke="#324065"/>
<path d="M339.451 19.35L339.98 11.1374L346.368 10.7613L347.688 18.865L339.451 19.35Z" fill="white"/>
<path d="M329.112 19.9587C327.835 20.0339 328.214 13.7701 328.563 10.6288C329.883 11.5632 336.296 10.1734 336.365 11.3502L336.845 19.5034L329.112 19.9587Z" fill="white"/>
<path d="M320.287 20.4784C319.009 20.5536 319.388 14.2897 319.737 11.1484L325.957 10.7822C326.899 10.7267 326.716 16.9791 326.507 20.1121L320.287 20.4784Z" fill="white"/>
<path d="M339.451 19.35L339.98 11.1374L346.368 10.7613L347.688 18.865L339.451 19.35Z" stroke="#324065"/>
<path d="M329.112 19.9587C327.835 20.0339 328.214 13.7701 328.563 10.6288C329.883 11.5632 336.296 10.1734 336.365 11.3502L336.845 19.5034L329.112 19.9587Z" stroke="#324065"/>
<path d="M320.287 20.4784C319.009 20.5536 319.388 14.2897 319.737 11.1484L325.957 10.7822C326.899 10.7267 326.716 16.9791 326.507 20.1121L320.287 20.4784Z" stroke="#324065"/>
</svg>
