<svg width="390" height="844" viewBox="0 0 390 844" fill="none" xmlns="http://www.w3.org/2000/svg">
<rect width="390" height="844" fill="white"/>
<path d="M146.953 371V359.688H149.297V364.375H154.203V359.688H156.562V371H154.203V366.312H149.297V371H146.953ZM162.266 371.172C159.672 371.172 158.078 369.484 158.078 366.797C158.078 364.172 159.688 362.406 162.172 362.406C164.406 362.406 166.156 363.812 166.156 366.703V367.359H160.359C160.359 368.641 161.125 369.438 162.312 369.438C163.094 369.438 163.656 369.094 163.891 368.578H166.094C165.766 370.141 164.359 371.172 162.266 371.172ZM160.359 365.906H163.969C163.969 364.875 163.25 364.141 162.219 364.141C161.156 364.141 160.398 364.93 160.359 365.906ZM169.922 359.688V371H167.609V359.688H169.922ZM174.031 359.688V371H171.719V359.688H174.031ZM179.641 371.172C177.078 371.172 175.484 369.406 175.484 366.781C175.484 364.156 177.078 362.406 179.641 362.406C182.203 362.406 183.812 364.156 183.812 366.781C183.812 369.406 182.203 371.172 179.641 371.172ZM179.656 369.375C180.844 369.375 181.453 368.266 181.453 366.781C181.453 365.281 180.844 364.172 179.656 364.172C178.453 364.172 177.828 365.281 177.828 366.781C177.828 368.266 178.453 369.375 179.656 369.375ZM187.781 369.844L186.438 374.297H184.781L185.562 369.844H187.781ZM193.078 371V359.688H197.578C200.078 359.688 201.328 360.891 201.328 362.594C201.328 363.922 200.469 364.75 199.297 365.016V365.125C200.578 365.188 201.781 366.203 201.781 367.875C201.781 369.672 200.438 371 197.875 371H193.078ZM197.406 369.062C198.766 369.062 199.344 368.5 199.344 367.656C199.344 366.703 198.625 366.031 197.469 366.031H195.422V369.062H197.406ZM197.234 364.422C198.219 364.422 198.953 363.875 198.953 362.969C198.953 362.156 198.359 361.594 197.281 361.594H195.422V364.422H197.234ZM208.656 367.391V362.516H210.969V371H208.75V369.469H208.656C208.266 370.453 207.359 371.109 206.078 371.109C204.375 371.109 203.219 369.906 203.219 367.922V362.516H205.531V367.516C205.531 368.516 206.109 369.156 207.016 369.156C207.859 369.156 208.656 368.547 208.656 367.391ZM217.609 365.031C217.516 364.438 216.984 364.047 216.219 364.047C215.469 364.047 214.891 364.406 214.906 364.922C214.891 365.297 215.203 365.594 216 365.766L217.516 366.078C219.156 366.422 219.953 367.156 219.969 368.375C219.953 370.047 218.453 371.172 216.203 371.172C213.906 371.172 212.562 370.141 212.375 368.484H214.703C214.812 369.156 215.359 369.5 216.203 369.5C217.047 369.5 217.609 369.156 217.609 368.609C217.609 368.172 217.25 367.906 216.453 367.734L215.047 367.453C213.438 367.141 212.594 366.297 212.609 365.047C212.594 363.422 214 362.406 216.188 362.406C218.328 362.406 219.656 363.422 219.781 365.031H217.609ZM220.984 368.625C220.984 366.734 222.516 366.109 224.141 366.016C224.75 365.977 225.891 365.922 226.25 365.906V365.219C226.234 364.516 225.75 364.094 224.891 364.094C224.109 364.094 223.609 364.453 223.484 365.031H221.281C221.422 363.562 222.703 362.406 224.953 362.406C226.797 362.406 228.547 363.234 228.547 365.281V371H226.359V369.828H226.297C225.875 370.609 225.078 371.156 223.812 371.156C222.188 371.156 220.984 370.312 220.984 368.625ZM223.203 368.562C223.203 369.219 223.734 369.562 224.469 369.562C225.516 369.562 226.266 368.859 226.25 367.969V367.344C225.898 367.359 224.914 367.414 224.516 367.453C223.719 367.531 223.203 367.906 223.203 368.562ZM232.625 366.094V371H230.312V362.516H232.516V364H232.609C233 363.016 233.906 362.406 235.156 362.406C236.922 362.406 238.094 363.609 238.078 365.594V371H235.781V366C235.781 364.953 235.203 364.328 234.25 364.328C233.281 364.328 232.625 364.969 232.625 366.094ZM242.625 359.688L242.422 367.609H240.422L240.219 359.688H242.625ZM241.438 371.141C240.703 371.141 240.109 370.547 240.125 369.828C240.109 369.109 240.703 368.531 241.438 368.531C242.125 368.531 242.734 369.109 242.734 369.828C242.734 370.547 242.125 371.141 241.438 371.141Z" fill="#333333" fill-opacity="0.45"/>
<path d="M147.181 479.264C145.328 474.235 141.702 462.589 142.02 456.237C147.048 454.384 156.392 453.22 153.533 463.383C153.136 464.575 151.072 467.354 145.99 468.942C149.166 467.618 155.677 466.163 156.312 470.927C157.106 476.882 153.533 478.073 147.181 479.264Z" stroke="#7FB6F6" stroke-width="3.97023" stroke-linejoin="round"/>
<path d="M160.282 463.78C162.135 464.971 163.061 468.545 163.061 474.5C163.326 469.868 166.238 460.048 174.178 459.413" stroke="#7FB6F6" stroke-width="3.97023" stroke-linecap="round" stroke-linejoin="round"/>
<path d="M151.548 486.451C177.519 480.81 224.813 468.127 206.22 462.533C182.979 455.54 200.353 488.188 215.538 470.335" stroke="#7FB6F6" stroke-width="3.2959" stroke-linecap="round" stroke-linejoin="round"/>
<path d="M180.069 468.176C186.024 466.211 195.788 461.646 187.206 459.106C176.478 455.931 168.861 481.272 188.306 471.025" stroke="#7FB6F6" stroke-width="3.2959" stroke-linecap="round" stroke-linejoin="round"/>
<path d="M213.881 459.81L227.38 457.031L221.027 472.515L232.144 470.133M235.32 459.81C236.114 465.501 239.767 473.944 248.025 462.192L236.511 483.234" stroke="#7FB6F6" stroke-width="3.2959" stroke-linecap="round" stroke-linejoin="round"/>
<path d="M172.563 421.116C171.055 423.801 172.913 433.031 174.03 437.31C174.506 439.284 178.086 438.225 179.817 437.449C179.722 436.153 180.364 433.378 183.696 432.651C187.028 431.925 188.423 435.01 188.704 436.644L203.844 435.273C203.731 434.022 204.279 431.424 207.376 431.037C210.474 430.65 211.534 433.227 211.678 434.563C213.784 434.372 216.709 432.957 217.908 432.273C218.479 431.005 218.875 426.836 215.895 420.31C212.17 412.153 210.853 413.732 208.447 412.822C206.042 411.911 190.429 413.193 182.32 414.525C174.211 415.857 174.449 417.76 172.563 421.116Z" fill="#FFCF01" stroke="#324065"/>
<path d="M173.312 438.901C172.48 434.994 173.052 433.836 173.445 433.778C173.671 436.28 176.586 435.485 177.615 435.856C178.439 436.153 178.143 437.777 178.141 438.729C176.824 439.432 174.54 439.276 173.312 438.901Z" fill="#A2A2A2"/>
<path d="M213.533 434.527C212.958 434.049 213.114 432.353 213.264 431.565C217.846 431.15 218.557 430.157 218.34 429.712C219.235 429.631 219.255 431.266 219.153 432.094C218.656 433.201 214.251 435.126 213.533 434.527Z" fill="#A2A2A2"/>
<path d="M173.312 438.901C172.48 434.994 173.052 433.836 173.445 433.778C173.671 436.28 176.586 435.485 177.615 435.856C178.439 436.153 178.143 437.777 178.141 438.729C176.824 439.432 174.54 439.276 173.312 438.901Z" stroke="#324065"/>
<path d="M213.533 434.527C212.958 434.049 213.114 432.353 213.264 431.565C217.846 431.15 218.557 430.157 218.34 429.712C219.235 429.631 219.255 431.266 219.153 432.094C218.656 433.201 214.251 435.126 213.533 434.527Z" stroke="#324065"/>
<path d="M180.823 438.287L179.177 438.436C178.885 435.211 179.4 432.111 184.337 431.664C188.287 431.306 189.301 435.418 189.314 437.518L187.998 437.637C188.042 436.173 187.406 433.297 184.504 433.507C181.603 433.717 180.841 436.781 180.823 438.287Z" fill="#CAA400"/>
<path d="M204.383 435.357L203.067 435.476C202.902 433.655 203.506 429.927 207.245 429.589C210.984 429.25 212.293 432.804 212.48 434.623L210.9 434.766C210.781 433.936 209.93 432.266 207.484 432.222C205.038 432.178 204.397 434.293 204.383 435.357Z" fill="#CAA400"/>
<path d="M180.823 438.287L179.177 438.436C178.885 435.211 179.4 432.111 184.337 431.664C188.287 431.306 189.301 435.418 189.314 437.518L187.998 437.637C188.042 436.173 187.406 433.297 184.504 433.507C181.603 433.717 180.841 436.781 180.823 438.287Z" stroke="#324065"/>
<path d="M204.383 435.357L203.067 435.476C202.902 433.655 203.506 429.927 207.245 429.589C210.984 429.25 212.293 432.804 212.48 434.623L210.9 434.766C210.781 433.936 209.93 432.266 207.484 432.222C205.038 432.178 204.397 434.293 204.383 435.357Z" stroke="#324065"/>
<circle cx="184.25" cy="437.313" r="4.29633" transform="rotate(-5.176 184.25 437.313)" fill="#010302"/>
<circle cx="183.94" cy="437.54" r="2.5117" transform="rotate(-5.176 183.94 437.54)" fill="#8A8A88"/>
<circle cx="183.761" cy="437.756" r="1.91682" transform="rotate(-5.176 183.761 437.756)" fill="#575757"/>
<circle cx="207.638" cy="435.393" r="3.43706" transform="rotate(-5.176 207.638 435.393)" fill="#010302"/>
<circle cx="207.386" cy="435.549" r="1.98292" transform="rotate(-5.176 207.386 435.549)" fill="#8A8A88"/>
<circle cx="207.243" cy="435.429" r="1.58634" transform="rotate(-5.176 207.243 435.429)" fill="#575757"/>
<path d="M209.606 417.561L213.801 416.252C216.854 421.816 217.337 424.029 217.198 424.44C215.927 424.82 213.229 425.609 212.601 425.719C211.974 425.829 210.343 420.326 209.606 417.561Z" fill="white" stroke="#324065"/>
<path d="M202.274 426.455C201.504 426.153 201.536 421.721 201.648 419.543L206.454 419.108C207.402 419.022 207.837 423.628 207.936 425.942C206.092 426.109 203.238 426.832 202.274 426.455Z" fill="white" stroke="#324065"/>
<path d="M192.963 426.967L193.175 420.51L198.178 420.057L199.414 426.382L192.963 426.967Z" fill="white"/>
<path d="M184.867 427.7C183.866 427.791 184.008 422.867 184.205 420.393C185.264 421.094 190.261 419.845 190.344 420.766L190.923 427.152L184.867 427.7Z" fill="white"/>
<path d="M177.955 428.326C176.954 428.417 177.096 423.493 177.293 421.02L182.164 420.578C182.901 420.511 182.912 425.422 182.826 427.885L177.955 428.326Z" fill="white"/>
<path d="M192.963 426.967L193.175 420.51L198.178 420.057L199.414 426.382L192.963 426.967Z" stroke="#324065"/>
<path d="M184.867 427.7C183.866 427.791 184.008 422.867 184.205 420.393C185.264 421.094 190.261 419.845 190.344 420.766L190.923 427.152L184.867 427.7Z" stroke="#324065"/>
<path d="M177.955 428.326C176.954 428.417 177.096 423.493 177.293 421.02L182.164 420.578C182.901 420.511 182.912 425.422 182.826 427.885L177.955 428.326Z" stroke="#324065"/>
</svg>
